<?xml version="1.0" encoding="UTF-8" standalone="no"?>
<!-- Created with Inkscape (http://www.inkscape.org/) -->

<svg
   xmlns:dc="http://purl.org/dc/elements/1.1/"
   xmlns:cc="http://creativecommons.org/ns#"
   xmlns:rdf="http://www.w3.org/1999/02/22-rdf-syntax-ns#"
   xmlns:svg="http://www.w3.org/2000/svg"
   xmlns="http://www.w3.org/2000/svg"
   xmlns:sodipodi="http://sodipodi.sourceforge.net/DTD/sodipodi-0.dtd"
   xmlns:inkscape="http://www.inkscape.org/namespaces/inkscape"
   width="125"
   height="105"
   viewBox="0 0 33.072918 27.781251"
   version="1.1"
   id="svg8"
   inkscape:version="0.92.5 (2060ec1f9f, 2020-04-08)"
   sodipodi:docname="crate.svg">
  <defs
     id="defs2" />
  <sodipodi:namedview
     id="base"
     pagecolor="#ffffff"
     bordercolor="#666666"
     borderopacity="1.0"
     inkscape:pageopacity="0.0"
     inkscape:pageshadow="2"
     inkscape:zoom="2.8"
     inkscape:cx="45.400857"
     inkscape:cy="34.692502"
     inkscape:document-units="mm"
     inkscape:current-layer="layer1"
     showgrid="false"
     showguides="false"
     units="px"
     inkscape:window-width="1920"
     inkscape:window-height="1200"
     inkscape:window-x="0"
     inkscape:window-y="0"
     inkscape:window-maximized="1" />
  <metadata
     id="metadata5">
    <rdf:RDF>
      <cc:Work
         rdf:about="">
        <dc:format>image/svg+xml</dc:format>
        <dc:type
           rdf:resource="http://purl.org/dc/dcmitype/StillImage" />
        <dc:title></dc:title>
      </cc:Work>
    </rdf:RDF>
  </metadata>
  <g
     inkscape:label="Layer 1"
     inkscape:groupmode="layer"
     id="layer1"
     transform="translate(-54.276232,-79.154574)">
    <text
       transform="rotate(-21.967678)"
       id="text935"
       y="113.78528"
       x="16.524715"
       style="font-style:normal;font-variant:normal;font-weight:bold;font-stretch:normal;font-size:5.34023619px;line-height:1.25;font-family:sans-serif;-inkscape-font-specification:'sans-serif, Bold';font-variant-ligatures:normal;font-variant-caps:normal;font-variant-numeric:normal;font-feature-settings:normal;text-align:start;letter-spacing:0px;word-spacing:0px;writing-mode:lr-tb;text-anchor:start;fill:#f2f2f2;fill-opacity:1;stroke:none;stroke-width:0.20025887"
       xml:space="preserve"><tspan
         style="fill:#f2f2f2;fill-opacity:1;stroke-width:0.20025887"
         y="113.78528"
         x="16.524715"
         id="tspan933"
         sodipodi:role="line">Click Me</tspan></text>
    <rect
       style="opacity:1;vector-effect:none;fill:#4f3215;fill-opacity:1;fill-rule:nonzero;stroke:#03152c;stroke-width:1.21974444;stroke-linecap:square;stroke-linejoin:miter;stroke-miterlimit:4;stroke-dasharray:none;stroke-dashoffset:0;stroke-opacity:1;paint-order:normal"
       id="rect815"
       width="27.941477"
       height="26.515892"
       x="54.886105"
       y="79.810059"
       ry="0" />
    <path
       style="fill:none;stroke:#03152c;stroke-width:1.21974444;stroke-linecap:butt;stroke-linejoin:miter;stroke-miterlimit:4;stroke-dasharray:none;stroke-opacity:1"
       d="m 60.592684,80.02684 v 26.20908"
       id="path817"
       inkscape:connector-curvature="0" />
    <path
       inkscape:connector-curvature="0"
       id="path819"
       d="m 66.489726,80.02684 v 26.20908"
       style="fill:none;stroke:#03152c;stroke-width:1.21974444;stroke-linecap:butt;stroke-linejoin:miter;stroke-miterlimit:4;stroke-dasharray:none;stroke-opacity:1" />
    <path
       style="fill:none;stroke:#03152c;stroke-width:1.21974444;stroke-linecap:butt;stroke-linejoin:miter;stroke-miterlimit:4;stroke-dasharray:none;stroke-opacity:1"
       d="m 72.084356,80.02684 v 26.20908"
       id="path821"
       inkscape:connector-curvature="0" />
    <path
       inkscape:connector-curvature="0"
       id="path823"
       d="m 77.275767,80.02684 v 26.20908"
       style="fill:none;stroke:#03152c;stroke-width:1.21974444;stroke-linecap:butt;stroke-linejoin:miter;stroke-miterlimit:4;stroke-dasharray:none;stroke-opacity:1" />
    <g
       aria-label="Click Me"
       transform="rotate(-21.967678)"
       style="font-style:normal;font-variant:normal;font-weight:bold;font-stretch:normal;font-size:5.34023619px;line-height:1.25;font-family:sans-serif;-inkscape-font-specification:'sans-serif, Bold';font-variant-ligatures:normal;font-variant-caps:normal;font-variant-numeric:normal;font-feature-settings:normal;text-align:start;letter-spacing:0px;word-spacing:0px;writing-mode:lr-tb;text-anchor:start;fill:#f2f2f2;fill-opacity:1;stroke:none;stroke-width:0.20025887"
       id="text829">
      <path
         d="m 20.102256,113.57146 q -0.276398,0.14341 -0.576265,0.21643 -0.299867,0.073 -0.625809,0.073 -0.972612,0 -1.541055,-0.54237 -0.568443,-0.54498 -0.568443,-1.47587 0,-0.9335 0.568443,-1.47586 0.568443,-0.54498 1.541055,-0.54498 0.325942,0 0.625809,0.073 0.299867,0.073 0.576265,0.21643 v 0.80573 q -0.279006,-0.19035 -0.55019,-0.27901 -0.271184,-0.0887 -0.571051,-0.0887 -0.537152,0 -0.844842,0.3442 -0.307689,0.34419 -0.307689,0.94914 0,0.60234 0.307689,0.94654 0.30769,0.34419 0.844842,0.34419 0.299867,0 0.571051,-0.0887 0.271184,-0.0887 0.55019,-0.27901 z"
         style="fill:#f2f2f2;fill-opacity:1;stroke-width:0.20025887"
         id="path937" />
      <path
         d="m 20.89234,109.72795 h 0.933499 v 4.05733 H 20.89234 Z"
         style="fill:#f2f2f2;fill-opacity:1;stroke-width:0.20025887"
         id="path939" />
      <path
         d="m 22.722831,110.86484 h 0.933499 v 2.92044 h -0.933499 z m 0,-1.13689 h 0.933499 v 0.7614 h -0.933499 z"
         style="fill:#f2f2f2;fill-opacity:1;stroke-width:0.20025887"
         id="path941" />
      <path
         d="m 26.913144,110.9561 v 0.7614 q -0.190351,-0.13038 -0.383308,-0.19296 -0.190351,-0.0626 -0.396346,-0.0626 -0.391131,0 -0.610164,0.22947 -0.216425,0.22685 -0.216425,0.63624 0,0.40938 0.216425,0.63884 0.219033,0.22686 0.610164,0.22686 0.219033,0 0.414598,-0.0652 0.198173,-0.0652 0.365056,-0.19296 v 0.76401 q -0.219034,0.0808 -0.445889,0.11995 -0.224249,0.0417 -0.451104,0.0417 -0.790084,0 -1.235973,-0.40417 -0.445889,-0.40678 -0.445889,-1.12906 0,-0.72229 0.445889,-1.12646 0.445889,-0.40678 1.235973,-0.40678 0.229463,0 0.451104,0.0417 0.224248,0.0391 0.445889,0.11995 z"
         style="fill:#f2f2f2;fill-opacity:1;stroke-width:0.20025887"
         id="path943" />
      <path
         d="m 27.718873,109.72795 h 0.933498 v 2.20858 l 1.074305,-1.07169 h 1.084736 l -1.426323,1.34027 1.538447,1.58017 h -1.131671 l -1.139494,-1.21772 v 1.21772 h -0.933498 z"
         style="fill:#f2f2f2;fill-opacity:1;stroke-width:0.20025887"
         id="path945" />
      <path
         d="m 33.171232,109.89223 h 1.277693 l 0.886563,2.08342 0.891778,-2.08342 h 1.275085 v 3.89305 h -0.949143 v -2.84743 l -0.896993,2.09907 h -0.636239 l -0.896993,-2.09907 v 2.84743 h -0.951751 z"
         style="fill:#f2f2f2;fill-opacity:1;stroke-width:0.20025887"
         id="path947" />
      <path
         d="m 41.358899,112.31723 v 0.26597 h -2.182508 q 0.0339,0.32855 0.237286,0.49283 0.203387,0.16427 0.568443,0.16427 0.294651,0 0.602341,-0.0861 0.310297,-0.0887 0.636239,-0.26596 v 0.71968 q -0.331157,0.12516 -0.662315,0.18774 -0.331157,0.0652 -0.662314,0.0652 -0.792691,0 -1.233365,-0.40156 -0.438066,-0.40417 -0.438066,-1.13167 0,-0.71447 0.430243,-1.12385 0.432851,-0.40939 1.189037,-0.40939 0.68839,0 1.100381,0.4146 0.414598,0.4146 0.414598,1.1082 z m -0.959573,-0.31029 q 0,-0.26597 -0.156453,-0.42764 -0.153844,-0.16427 -0.404168,-0.16427 -0.271184,0 -0.440674,0.15384 -0.16949,0.15124 -0.21121,0.43807 z"
         style="fill:#f2f2f2;fill-opacity:1;stroke-width:0.20025887"
         id="path949" />
    </g>
    <rect
       ry="0"
       y="79.810059"
       x="82.827583"
       height="26.515892"
       width="3.931365"
       id="rect825"
       style="opacity:1;vector-effect:none;fill:#341f12;fill-opacity:1;fill-rule:nonzero;stroke:#03152c;stroke-width:1.21974444;stroke-linecap:square;stroke-linejoin:miter;stroke-miterlimit:4;stroke-dasharray:none;stroke-dashoffset:0;stroke-opacity:1;paint-order:normal" />
  </g>
</svg>
